<?xml version="1.0" encoding="utf-8"?>
<!-- Generator: Adobe Illustrator 22.0.1, SVG Export Plug-In . SVG Version: 6.00 Build 0)  -->
<svg version="1.1" xmlns="http://www.w3.org/2000/svg" xmlns:xlink="http://www.w3.org/1999/xlink" x="0px" y="0px"
	 viewBox="0 0 763.7 503.7" style="enable-background:new 0 0 763.7 503.7;" xml:space="preserve">
<style type="text/css">
	.st0{fill:#FFFFFF;}
	.st1{fill:#FFFFFF;stroke:#FFFFFF;stroke-miterlimit:10;}
	.st2{fill:#FCFCFC;}
	.st3{fill:#FDFDFD;stroke:#FFFFFF;stroke-width:9.375000e-02;stroke-miterlimit:10.43;}
	.st4{fill:#FDFDFD;}
	.st5{fill:none;stroke:#FFFFFF;stroke-width:3;stroke-miterlimit:10;}
	.st6{fill:none;stroke:#FFFFFF;stroke-width:0.9437;stroke-miterlimit:10;}
</style>
<g id="Layer_2">
</g>
<g id="Layer_1">
	<g id="Layer_2_1_">
	</g>
	<g id="Layer_1_1_">
		<g>
			<g>
				<path class="st0" d="M150.2,18.8c6.6-2.5,13.2-5,20.2-6c4.3-0.6,9.1-0.1,12.5,2.7c3.9,3.2,5.7,8,7.4,12.5
					c3.1,9.1,5.7,18.4,8.2,27.6c4.4,0.3,9.2,0.5,12.7,3.5c2.8,2.7,4.6,6.2,6.5,9.6c5.9,0.9,12.1,1.6,17.4,4.7
					c10.1,5.6,20.6,11.8,32.4,11.8c71.3,0,142.7,0,214,0c7.1-0.1,14.3,0.4,21.2-1.1c6.9-1.5,12.8-5.9,19.2-8.7
					c6.7-3,13.5-6.7,21.1-6.8c1.9-3.6,3.9-7.4,6.9-10.3c3.3-2.5,7.8-2.2,11.7-2.5c2.7-10.5,5.6-21.1,9.5-31.3
					c1.6-4,3.8-8.1,7.7-10.3c4-2.3,8.9-2,13.3-1.1c6.3,1.3,12.4,3.3,18.3,5.7c3.5,1.5,7.3,3.1,9.4,6.5c9.1,13.3,15.1,28.4,22.3,42.7
					c3.8,7.8,7.7,15.6,11.6,23.4c1,2.2,3,3.7,4.7,5.3c8.1,7.5,13.8,17,20,26c3.1,5,6.9,9.6,8.8,15.2c15.6,42.4,29.6,85.5,41.9,129
					c8.7,29.8,14.7,60.6,15.1,91.7c0,8.4,0.2,16.8-1,25.1c-2.3,17.7-9.4,35-21.1,48.6c-13.5,16.5-33.8,26.3-54.6,29.7
					c-15,2.6-30.3,1.1-44.9-2.5c-23.5-5.3-45.1-16.6-67.7-24.7c-11.7-4.6-24.5-5.6-36.9-6.8c-47.5-3.4-95.1-1.7-142.6-1.8
					c-11,0.3-22,0.1-33,0.1c-23.7,0.6-47.3,0.2-71,0.3c-21.3-0.1-43.1,0.2-63.5,7.1c-24.2,8.2-47.2,19.7-72,26
					c-9.6,2.5-19.6,3.5-29.5,3.2c-21.4,0.2-42.6-7.9-59.1-21.5c-12.1-9.9-21.2-23.3-25.7-38.3c-7.2-23.5-6.8-48.7-3.7-72.8
					c3.4-24.8,9.5-49.2,15.9-73.3c10.6-39.9,24.5-78.8,38.3-117.6c2.9-9.2,9.1-16.8,14.6-24.5c4.3-5.7,8.5-11.5,13.2-16.9
					c1.9-2.4,5-3.7,6.4-6.5c7.9-17.3,15.9-34.6,24.5-51.6c2.9-5.8,6.5-11.3,10.6-16.4C143.7,21.3,147.1,20.1,150.2,18.8z M145,23.1
					c2.4,10.2,5.1,20.3,6.8,30.6c12.3-0.9,24.4-2.9,36.6-4.5c-12,2.7-24.2,4.6-36.4,6.3c0.2,5.8,0.9,11.5,0.7,17.2
					c5.7-2.3,11.8-0.5,17.8-0.5c9.8,0,19.5-0.8,29.3-1.6c-1.7-12-5.5-23.5-8.9-35.1c-2.1-6.1-3.7-12.8-8.1-17.7
					c-3.7-3.8-9.4-3.7-14.3-2.7C160.4,16.7,152.6,19.7,145,23.1z M578.5,16.9c-4.5,3.8-6.1,9.8-8,15.1c-4.1,12.7-7.8,25.5-9.8,38.7
					c13.3,1.2,26.7,2.2,40,1c2.4-0.3,4.7,0.5,7.1,1.1c0.3-5.8,0.5-11.6,0.8-17.5c-12-1.6-24.1-3.4-35.9-6.3
					c12,1.8,24.1,3.7,36.3,4.5c1.5-10.3,4.5-20.2,6.7-30.3c-7.6-3.9-15.8-6.6-24.1-8.4C587,14,582,13.9,578.5,16.9z M126.1,54.6
					c-6.7,14.2-13.6,28.3-19.8,42.8c14.5-8.6,29.4-16.5,44.7-23.5c0-7.1-0.2-14.2-1.2-21.2c-1.7-9.3-3.9-18.5-6.4-27.7
					C135.6,33.5,131.2,44.4,126.1,54.6z M617.1,25c-2.2,8.2-4.2,16.4-5.8,24.7c-1.6,8-1.5,16.3-1.9,24.4
					c15.5,7.4,30.7,15.3,45.4,24.1c-4.5-9.5-9.4-18.9-14-28.4C633.2,54.6,627.2,38.6,617.1,25z M199.2,57.7
					c0.9,4.2,1.9,8.4,2.5,12.6c4.6-0.3,9.3-0.8,13.9-1.4c-1.6-3.2-3.3-6.5-6.1-8.8C206.4,58,202.7,57.8,199.2,57.7z M550.2,60.7
					c-2.1,2.5-4.2,5.3-4.9,8.6c4.4,0.4,8.8,1.1,13.3,1.3c0.7-4.3,1.7-8.6,2.5-12.9C557.5,58.1,552.9,57.6,550.2,60.7z M159.5,73.4
					c-3.8-0.5-7,1.8-10.3,3.2c-13.9,6.8-27.9,13.7-41,22c-1.8,0.8-2.2,2.8-2.4,4.5c5.6,3.8,12.8,2.8,19.2,2.3c28.3-5,56.6-9.5,85-14
					c9.3-1.6,19.1-0.9,28.1,2.1c9.9,3,18.3,9.6,28.5,11.8c-0.9-5.9-2.7-11.7-4.9-17.3c-0.3-1.5-2-1.5-3.1-1.8
					c-8.2-1.9-15.7-6-23-10.1c-6-3.6-13.1-5.1-20.1-5.1C196.9,72.8,178.2,74.7,159.5,73.4z M535.9,71.5c-8.2,2.9-16.1,6.9-23.7,11.1
					c-4,2.3-8.6,3.3-13,4.2c-3,5.7-4.4,12.2-5.5,18.5c6.9-1.5,13.1-4.8,19.3-7.9c11.6-6,25.2-8.3,38.1-6
					c26.9,4.4,53.9,8.6,80.8,13.4c6.9,1.1,14.3,2,21-0.4c2.3-0.7,2.3-4,0.2-4.9C639.8,91,625.6,84,611.4,77
					c-3.5-1.5-6.9-3.9-10.9-3.4c-17.7,1.2-35.4-0.4-53-2.4C543.7,70.8,539.6,70.1,535.9,71.5z M262.5,87.1c2.3,6,3.9,12.3,5.4,18.6
					c2.5,0.2,5,0.5,7.6,0.5c67,0,134,0,201,0c5.2,0,10.5,0.3,15.7-0.5c1.4-6.4,3.2-12.7,5.3-18.8c-21.3,0.7-42.7,0.1-64,0.3
					C376.5,87.1,319.5,87.1,262.5,87.1z M196.6,95.3c-20.9,3.4-41.8,6.7-62.7,10.4c-8.5,1.6-17.4,3.2-25.9,0.8
					c-2.3-0.4-3.6-2.3-4.4-4.3c-4.1,10.2-7.8,20.5-10.5,31.1c6.6,0.9,13.2-0.6,19.8-1.7c25.4-4.6,50.8-9.9,76.3-14
					c17.2-2.7,35.1-3.5,51.9,1.7c8.7,2.8,17.8,4.1,26.9,4.3c-0.1-5.4-0.4-10.8-1-16.2c-12.9-2.8-23.5-11.9-36.7-14
					C219.1,90.7,207.8,93.6,196.6,95.3z M511.6,100.1c-5.9,3.1-12.1,5.8-18.6,7.3c-0.6,5.4-0.9,10.8-1,16.1
					c9.4-0.2,18.8-1.5,27.8-4.4c18.6-5.7,38.5-4,57.5-0.6c23.7,4,47.2,8.9,70.8,13.2c6.4,1,12.8,2.5,19.3,1.5
					c-2.9-10.3-6.1-20.6-10.4-30.4c-1.3,1.4-2.4,3.1-4.2,3.6c-6.1,1.9-12.7,1.5-19,0.6c-24.5-4.4-49.1-8.3-73.6-12.3
					c-6.5-0.9-13-2.5-19.6-2.4C530.4,92.4,520.4,95.3,511.6,100.1z M92.1,111.6c-4,5.4-8.2,10.6-11.5,16.5c5.5-2.5,9.1-8.3,15.2-9.9
					c2.2-6.9,5-13.6,7.7-20.3C99.2,101.9,95.8,106.9,92.1,111.6z M657.5,98.8c2.3,5.8,4.7,11.6,6.6,17.5c0.4,2.3,2.8,2.6,4.5,3.6
					c3.7,2.2,6.4,5.7,10.3,7.7c-1.5-3.1-3.5-5.8-5.4-8.6C668.6,111.9,663.9,104.6,657.5,98.8z M268.1,107.6c0.4,5.3,1,10.5,0.9,15.8
					c24.5,0.6,49,0.2,73.5,0.3c49.5-0.1,99,0.2,148.5-0.2c0-5.3,0.5-10.6,1-15.9c-55.1,0.4-110.3,0.1-165.4,0.2
					C307,107.7,287.6,108.1,268.1,107.6z M171.8,122.4c-19.7,3.5-39.3,7.5-59.1,11.1c-6,0.9-12.1,2.4-18.2,1.7
					c-1.2-0.3-3.3-0.6-2.9-2.3c0.3-4.6,2.6-8.9,3.5-13.4c-4.6,1.6-8,5.4-11.7,8.3c-2.8,2.5-6.5,4.6-7.8,8.3c-1.5,4-2.8,9-0.2,12.8
					c1.9,3,5.8,3.3,9,3.4c8,0,15.9-1.1,23.8-2.1c22.2-3.1,44.2-7.5,66.2-11.5c14.2-2.3,29-4.8,43.3-1.2c10.6,2.7,19.6,9.4,27.5,16.7
					c15.9,15.1,31.2,31,48.2,44.8c9.3,7.6,20.7,11.7,31.9,15.7c-11.4-2.9-22.8-7.1-32.1-14.5c-17.1-13.4-32.3-28.9-48.1-43.9
					c-5.9-5.6-12.3-10.8-19.7-14.3c-8.4-4-17.8-5-26.9-4.4c-12.4,0.8-24.7,3.2-36.9,5.5c-22.9,4.2-45.9,8.8-69.1,10.9
					c-4.8,0.3-9.9,0.8-14.6-0.7c-3.1-1.1-4.6-4.1-6.1-6.7c-19.5,54.8-38.3,110.2-49.2,167.5c-3.7,19.7-5.8,39.7-4.5,59.7
					c1.4,19.8,6.6,40.3,19.6,55.8c13,15.3,31.3,25.9,50.9,30.2c16.7,3.1,34.1,2.4,50.4-2.2c22.8-6.4,44.1-16.7,66.4-24.5
					c20.5-7.3,42.5-8,64.1-7.8c65.3,0.2,130.7-1,196-0.8c24,0.5,48.2,0.8,72,4.2c11.5,1.4,22.1,6.2,32.8,10.3
					c19.1,7.8,38.2,16.4,58.6,20.3c14.7,3.2,30.2,3.4,44.9-0.1c17.8-4.2,34.8-13.2,46.6-27.4c14.5-16.8,21.7-39,22.1-60.9
					c0.8-31.3-4-62.7-12.3-92.8c-12.1-44.7-26.4-88.7-42.1-132.3c-1,3.2-2.8,6.5-6.2,7.6c-5,1.5-10.4,0.8-15.5,0.5
					c-26.8-2.7-53.3-8.2-79.8-13c-15.5-2.5-31.8-5.9-47.1-0.9c-14.2,4.6-24.4,16.1-35,26c-12.5,12.2-25.2,24.3-39,34.9
					c-9,7-20,10.9-31,13.6c11.2-4,22.6-8,31.9-15.7c14.8-11.8,28-25.3,41.7-38.4c7.5-7.5,15.5-15,25.1-19.7c9-4.5,19.3-5.7,29.3-5
					c16.6,1,32.9,4.9,49.2,7.8c18.5,3.3,37,6.8,55.7,8.4c4.3,0.3,8.6,0.7,12.8-0.2c3.2-0.7,5.5-3.7,5.6-6.9c0.3-5.4-1.5-11.3-6-14.5
					c-4.8-3.7-8.9-8.6-14.6-10.9c0.7,4.8,3.7,9.3,3.4,14.2c-3.1,2.6-7.6,1.4-11.3,1.1c-22.3-3.3-44.4-8.3-66.7-12.2
					c-22.9-4.2-46.9-9-69.7-2.1c-10.5,3.5-21.6,4.7-32.7,4.8c-67.7,0-135.3,0-203,0c-11.6,0-23.2,0.4-34.7-1.8
					c-7.4-1.4-14.4-4.3-21.9-5.3C209.8,115.2,190.6,119,171.8,122.4z"/>
			</g>
			<g>
				<path class="st1" d="M318.5,247.2c4.1,0,8.2,0,12.3,0.1c0.3,2.9,0.4,5.7,0.3,8.6c-4.1-0.1-8.2-0.1-12.3-0.1
					C318.6,252.9,318.5,250,318.5,247.2z M320.6,249.3c0,1.4,0,2.9,0.1,4.4c2.8,0,5.5,0,8.3,0c-0.1-1.4-0.2-2.9-0.2-4.3
					C326.1,249.3,323.4,249.3,320.6,249.3z"/>
			</g>
			<g>
				<path class="st0" d="M476.9,310.3c15.7-1.5,32.5,3.2,43.6,14.7c8.5,8.4,12.9,21,10.8,32.9c-0.3,4.2-3.1,7.8-3.2,12
					c1.3,10.3-2.2,20.9-9,28.6c-13.6,15.9-38.2,19.9-56.6,10.5c-11.4-5.5-20.4-16.2-22.5-28.8c-0.7-3.6,0.1-7.6-2.1-10.7
					c-7.6-13.3-5.3-31,4.8-42.4C451.2,317.3,463.9,311.4,476.9,310.3z M457.4,317.9c-8.5,4.4-15.7,11.6-19.5,20.4
					c-4.1,9.6-3.7,21.1,1.6,30.2c2.3-10.4,8.3-20.2,17.4-26c3.3-1.7,4.6-5.4,7.2-7.9c8.4-7.9,22.4-8.6,31.9-2.2
					c3,1.9,4.9,5.3,8.4,6.6c11,4.7,19.5,14.5,22.8,26c3.9-9.1,3.5-19.9-1.1-28.7c-6-12-18.1-20.1-31-23
					C482.6,310.5,468.9,311.8,457.4,317.9z M463.1,338.7c6-2.1,12-4.2,18.4-4.3c5.4-0.4,10.7,0.8,16.1,1.5
					C488,327.2,471,328.1,463.1,338.7z M477.9,336.6c-10.7,1.4-21.1,6.4-28.1,14.8c-5.3,6.2-8.6,14.3-8.5,22.6
					c-0.2,9.5,4.1,18.8,10.7,25.5c10.1,10.1,25.2,14.5,39.3,12.2c12.7-1.9,24.8-9.5,31-20.9c4.1-7.2,5.1-15.9,3.4-23.9
					c-2.5-11.1-10.5-20.4-20.5-25.5C496.8,337,487.2,335.5,477.9,336.6z"/>
			</g>
		</g>
		<g>
			<g>
				<path class="st0" d="M634.8,226.6c6.1-0.1,12.8-2.5,18.6,0.3c2.7,3.9,0.3,9.2-2.8,12.1c1.4,0.8,2.9,1.5,4.1,2.6
					c0.9,3.3-0.2,7-2.9,9.1c-5.1,4.1-12,4.1-18.2,4.7C633.9,245.9,634.8,236.3,634.8,226.6z M640.2,231.3c-0.2,2.4-0.2,4.8-0.2,7.3
					c2.2-0.2,4.5-0.2,6.6-0.9c2.2-1.2,3.3-5.5,0.5-6.6C644.8,230.6,642.5,231.2,640.2,231.3z M639.8,243.5c-0.1,2.5-0.3,5.1-0.4,7.6
					c4-0.3,9.8-0.7,10.1-5.9C647.9,241.3,642.9,243.4,639.8,243.5z"/>
			</g>
		</g>
		<path class="st0" d="M428.5,243.6c6.5-0.1,13,0,19.6,0c0,0.5,0,1.6,0,2.1c-6.5,0-13.1,0-19.6,0
			C428.4,245.2,428.5,244.1,428.5,243.6z"/>
		<path class="st0" d="M428.1,254.8c0-1.4,0.8-2.1,2.1-2c6-0.1,12,0,17.9,0c0,0.5-0.1,1.6-0.1,2.1
			C441.4,254.8,434.7,254.9,428.1,254.8z"/>
		<path class="st2" d="M618.1,234.2c4.2-13.7,20.9-22.3,34.4-17.2c-8.6-1-17.8,0.1-24.9,5.6C623.2,225.3,620.7,229.9,618.1,234.2z"
			/>
		<path class="st2" d="M567.7,273.1c7.2-6.2,18-8.8,26.9-5c-4.8,0.1-9.6-0.9-14.3,0.2C575.8,268.9,571.9,271.4,567.7,273.1z"/>
		<path class="st2" d="M257.5,367.5c0.8,0.1,2.3,0.2,3.1,0.2c0.7,8.6,1,17.2,1.1,25.8c-2.2-1.1-2.4-3.8-2.9-5.9
			C257.8,380.9,257.7,374.2,257.5,367.5z"/>
		<g>
			<g>
				<path class="st0" d="M584.6,170.8c8.3-2.3,17.8-0.9,24.7,4.3c6.2,4.6,9.8,12.5,9,20.2c-1,10.5-8.8,19.8-18.6,23.4
					c-9.3,3.6-20.4,2.4-28.4-3.7c-7.2-5.3-10.5-15.2-8.2-23.9C565.8,181,574.6,173.3,584.6,170.8z M572.9,179.2
					c-3.8,2.2-6.2,6.2-7.8,10.2c0.3,0.6,0.9,1.8,1.1,2.4c-1.8,5.7-1.3,12.3,2.1,17.3c3.9,5.6,10.5,8.8,17.2,9.6
					c12.8,1.7,26.1-6.5,30-18.9c2.1-6,0-12.4-3.5-17.4l1,0.4c-0.3-3.1-2.5-6-5.6-6.8C597,168.8,581.9,170.6,572.9,179.2z"/>
			</g>
			<path class="st0" d="M572.9,179.2c5.8-2.8,11.6-6.2,18.3-6.2c5.6-0.5,11,1.6,16.3,3.1c3.1,0.8,5.3,3.6,5.6,6.8l-1-0.4
				c-3.8-3.5-8.2-6.7-13.4-7.6c-13-2.9-27.5,4.4-32.3,16.9c-0.3-0.6-0.8-1.8-1.1-2.4C566.6,185.4,569.1,181.3,572.9,179.2z"/>
		</g>
		<g>
			<path class="st0" d="M639.6,213.7c8.4-1.5,17.7,1.2,23.4,7.6c3.9,4.6,5.8,10.8,6,16.8c-0.6,13.4-12.9,24-25.8,25.2
				c-7.9,0.9-16.5-1.2-22-7.2c-5.7-5.7-7.4-14.6-5.3-22.2C618.9,223.3,628.8,215.5,639.6,213.7z M639.5,218.6
				c-9.4,2.1-18,8.9-20.5,18.4c-2,6.6,0.4,14.1,5.5,18.7c4.7,4.4,11.3,6.3,17.6,5.6c12.1-0.9,24-10.6,24.6-23.2
				c-0.2-5.3-1.5-11.3-5.9-14.7C655.1,218.4,646.9,216.9,639.5,218.6z"/>
		</g>
		<g>
			<path class="st0" d="M599.1,183.2c1.6-0.8,3.4-0.4,5.1-0.7c-3,6.7-6.9,12.8-10.4,19.3c-1.8,3.3-0.3,7.4-1.8,10.7
				c-1.7,0.1-3.4,0.1-5.1,0c0.1-3.4,1.1-6.9,0.3-10.2c-3.3-6.2-6.3-12.5-9.2-18.9c1.9,0,3.8,0.1,5.7,0.2c2.3,4.5,4.5,9.1,6.8,13.6
				C593.7,192.7,596,187.7,599.1,183.2z"/>
			<path class="st0" d="M540.3,232.3c1.7,0.1,3.4,0.2,5.1,0.3c-3,5.1-6.4,10-10.1,14.7c2.8,4.2,6.1,8.1,8.9,12.3
				c-2,0.2-4,0.4-5.9,0.5c-2.1-2.9-4.2-5.7-6.3-8.6c-2.7,2.5-4.8,5.5-7.3,8.1c-2,1-4.4,0.1-6.6,0.3c3.6-4.2,7.7-8,11-12.5
				c-3.1-4.6-6.1-9.2-8.9-14c1.9,0.1,4-0.9,5.8,0.1c2.2,3.3,4,6.8,6.3,10C535.1,239.9,537.6,236.1,540.3,232.3z"/>
			<path class="st0" d="M311.6,241.5c4.1,0,8.1,0,12.2,0c0,1.3,0,2.6,0.1,3.9c-3.1-2.1-6.8-2.1-10.4-1.6c-0.6,2.9,1.5,4.5,3,6.6
				c-1.6,0-3.3,0-4.9-0.1C311.6,247.4,311.6,244.5,311.6,241.5z"/>
			<g>
				<path class="st0" d="M582.2,276.1c1.9,0,3.8,0,5.6,0c3.1,8.5,6.3,17,10,25.3c-1.8,0.2-3.7,1.4-5.4,0.7c-1-1.6-1.8-3.3-2.5-5
					c-4.1-0.1-8.3,0.2-12.4,0.4c-1,1.7-1.8,3.5-2.9,5.2c-1.7,0.8-3.8,0-5.6,0.2C573.7,294,578.4,285.3,582.2,276.1z M579.6,293.3
					c3,0,6-0.2,8.9-0.4c-1.1-3.5-2.4-7-3.8-10.5C582.7,285.9,581.1,289.6,579.6,293.3z"/>
			</g>
		</g>
		<g>
			<g>
				<path class="st0" d="M164.5,202.5c16.5-2.4,34.1,2.5,46.5,13.9c9.2,8.2,15.1,20.3,14.9,32.7c0,7.7-2.6,15-6.5,21.5
					c-0.7,7.9-2.8,15.8-7.8,22.1c-8.4,11.2-22.6,17.4-36.4,17.1c-17,0.1-34.1-9-42.4-24.1c-4.1-7.1-5.1-15.3-4.9-23.3
					c-4.6-10.6-5.5-23.2-0.5-33.8C133.9,213.9,148.9,204.4,164.5,202.5z M151.1,208.1c-8.1,3.5-15.3,9.4-19.9,17.1
					c-6,9.9-7.2,22.8-2.5,33.4c1.4-3.8,2.6-7.7,4.8-11.1c5.1-8.3,13.4-14.3,22.6-17.3c3.4-0.9,5.3-4.1,8.4-5.7
					c8.1-4.4,18.5-3.7,26.3,1c4.5,2.5,7.2,6.9,9.9,11.1c9.9,6.9,16.9,17.8,18.3,29.9c4.6-6.3,5.3-14.7,4.7-22.2
					c-1.5-13.7-10.5-25.6-22.2-32.6C186.6,202.6,167.2,201.1,151.1,208.1z M162.7,228.1c4.8-0.1,9.7-0.8,14.5-0.1
					c7,0.6,13.6,3.1,19.9,6.2C190,223,173,219.8,162.7,228.1z M166.6,229.8c-11,1.1-21.8,6.3-28.8,15c-6.4,7.8-9.4,18.3-7.5,28.2
					c1.9,11.5,9.6,21.6,19.4,27.7c11.3,7.1,25.6,9.1,38.5,5.5c9.4-2.7,18-8.5,23.3-16.7c4.6-7.1,6.8-15.9,5.4-24.2
					c-1.2-8.2-5.2-15.9-11.1-21.7C195.8,233.1,180.8,228.3,166.6,229.8z"/>
			</g>
			<g>
				<path class="st0" d="M316.5,229.8c8.5-2,19.1,1.9,22.2,10.6c0.6,5.4,0.5,11.7-3.4,15.9c-7.6,8-22.3,7.8-29.5-0.7
					c-3.5-3.9-2.8-9.5-2.1-14.3C304.8,235.2,310.7,231,316.5,229.8z M305.8,240.2c4.4-3.5,9.6-6.1,15.3-5.7
					c6.4-0.3,12.1,3.3,16.2,7.9C333.9,228.5,311.4,227.3,305.8,240.2z M314.5,236.4c-3.7,1.2-7.3,3.6-9,7.1
					c-1.3,3.5-0.9,7.8,1.6,10.7c6.3,7.7,19.3,8.1,26.4,1.2c3.4-3.3,4.8-9.3,1.8-13.3C330.7,235.7,321.7,234.2,314.5,236.4z"/>
			</g>
			<path class="st0" d="M428.4,248.3c6.5-0.1,13.1-0.1,19.6,0c0,0.5,0,1.6,0,2.1c-6.6,0-13.1,0-19.7,0
				C428.4,249.9,428.4,248.9,428.4,248.3z"/>
		</g>
		<g>
			<path class="st0" d="M166.6,249.6c9.8-1.1,20.4,1.6,27.7,8.4c5.1,4.6,8.6,11.2,8.5,18.1c0.3,7.7-4.2,14.9-10.5,19.1
				c-14.3,9.7-36,6-45.9-8.3c-4.1-5.7-5.1-13.2-3.2-19.9C146.4,257.1,156.5,250.7,166.6,249.6z M162.5,251.5
				c-9.6,2.3-18.6,10.4-19.1,20.7c-0.8,9.1,4.9,17.6,12.5,22.2c11.9,7.5,29.1,6.9,39.4-3.2c6.7-6.3,8.4-17.1,3.9-25.1
				C192.4,253.3,176,248,162.5,251.5z"/>
		</g>
		<g>
			<path class="st0" d="M479.6,357.7c9.8-1.1,20.4,1.6,27.5,8.6c4.4,4.3,7,10.5,6.6,16.7c-0.3,6.5-4.3,12.4-9.3,16.3
				c-12.8,9.6-32.8,8.6-44-3.1c-5.9-5.9-7.7-15.5-4.1-23.1C460.3,364,470,358.8,479.6,357.7z M476.5,359.3
				c-8.5,1.7-16.6,7.1-19.9,15.4c-2.7,6.7-1,14.8,3.9,20c11.4,12.7,33.4,13.2,45.6,1.3c5-4.7,7.6-12.1,5.9-18.8
				c-1.4-6-5.7-11-10.9-14.1C493.9,358.7,484.8,357.6,476.5,359.3z"/>
		</g>
		<g>
			<path class="st0" d="M580.5,264.7c8.2-1.6,17.4,0.6,23.4,6.7c5.2,5,7.2,12.5,6.8,19.5c-1.2,11.1-10.8,19.9-21.3,22.3
				c-9.2,2.4-19.8,0.2-26.5-6.7c-6.6-6.8-8-17.9-3.6-26.3C563.3,271.9,571.7,266.4,580.5,264.7z M567.7,273.1
				c4.2-1.6,8.1-4.2,12.7-4.9c4.7-1.1,9.5-0.1,14.3-0.2C585.7,264.3,574.9,266.9,567.7,273.1z M580.5,269.5
				c-9.9,2-19.4,9.5-21.2,19.9c-1.3,6.6,1.9,13.5,7.1,17.6c11.7,9.3,30.5,5.4,38.7-6.8c5.3-7.5,4.9-19.3-2.4-25.4
				C596.7,269.4,588.2,267.9,580.5,269.5z"/>
		</g>
		<g>
			<g>
				<path class="st0" d="M432.6,229.9c7-1.7,15.3,0.1,20.1,5.8c2.9,3.4,3.2,8.2,3.2,12.5c0.2,5.1-3.6,9.5-8,11.7
					c-7.7,3.9-17.9,2.9-24.1-3.3c-4-4-4.1-10.1-3.7-15.4C421.3,235.3,427,231.3,432.6,229.9z M421.8,241.5c4.3-3.8,9.4-7.3,15.4-7.1
					c5.7-0.6,10.9,2.2,15.5,5.2C447,227.5,426,228.7,421.8,241.5z M431.5,236.4c-4.2,1.4-8.2,4.4-9.4,8.8c-0.8,4.3,1.1,8.8,4.6,11.3
					c6.9,5.1,17.6,4.9,23.9-1c4.1-3.6,4.8-10.8,0.8-14.7C446.6,235.4,438.2,234.4,431.5,236.4z"/>
			</g>
		</g>
		<g>
			<path class="st3" d="M305.8,240.2c5.6-12.9,28.1-11.6,31.5,2.2c-4.1-4.7-9.8-8.2-16.2-7.9C315.4,234,310.2,236.7,305.8,240.2z"/>
			<path class="st4" d="M421.8,241.5c4.2-12.8,25.2-14,30.9-1.9c-4.6-3-9.8-5.8-15.5-5.2C431.2,234.2,426.1,237.7,421.8,241.5z"/>
		</g>
		<g>
			<g>
				<path class="st0" d="M270.6,295.7c18.4-1.1,37.6,3.4,52.5,14.5c9.4,6.8,16.8,16.5,20.1,27.8c3.5,11.8,1.6,25-5,35.4
					c-7.9,12.7-21.2,21.3-35.4,25.6c-19.3,5.8-40.8,4.1-59-4.7c-11.5-5.6-21.8-14.4-27.8-25.9c-5.2-9.7-6.7-21.4-3.7-32
					c3-11.1,10.4-20.6,19.6-27.3C243.2,300.9,256.9,296.8,270.6,295.7z M296.4,399.6c18.4-3.9,36.6-15.1,44.2-33
					c5.4-12.4,4-27.3-3-38.8c-8.4-14.3-23.3-23.8-39-28.2c-15.9-4.3-33.1-4-48.7,1.4c-12.1,4.2-23.3,11.8-30.5,22.5
					c-6.6,9.7-9.5,22.2-6.5,33.7c3.3,14.5,14,26.2,26.6,33.6c14.1,8.3,30.8,11.4,47,10.5C286.6,401.3,293.6,400.5,296.4,399.6z
					 M286.7,399.6c-7.7,0.4-15.7,0.8-23-2c-3.2-1-5.4-3.9-6.1-7c-1.8-7.2-1.5-14.7-2-22c-8.8,0.5-17.7,1.8-26.5,1.8
					c-6.7-0.1-11.3-6.4-12.8-12.4c-1.7-7.3-2.1-15.2,0.4-22.3c1.5-4.1,6.1-5.4,10.1-5.8c9.1-0.8,18.2-1.2,27.2-2
					c-0.2-7.3-1-14.6-1.1-21.9c-0.1-2.4,2.2-4.1,4.2-4.9c4.5-1.7,9.3-1.5,14-1.7c7.8,0,15.7-0.3,23.3,1.5c2.5,0.7,5.7,2,5.7,5
					c0.7,7.5,0.5,15,1.4,22.5c9,1.4,18.2,0.7,27.2,1.9c4.1,0.6,8.8,2.5,10.3,6.7c2.7,8,3,16.9,1.1,25.1c-1,5-6.3,6.9-10.5,8.4
					c-9,1.1-18-1.3-27-1.9c0,7.1,0.5,14.1,0,21.2c-0.3,4-3.7,7.1-7.3,8.3C289.7,399.2,286.7,399.6,286.7,399.6z M264.9,301.6
					c-3.5,0.3-7.7,0.5-10,3.7c-0.5,8.1,1.1,16.2,0.8,24.4c-9.8,1.1-19.7,1.3-29.5,2.3c-3,0.4-6.5,1.4-7.7,4.5
					c-2.2,5.8-2,12.3-1,18.4c0.9,5.7,4,11.4,9.6,13.7c-2.4-8.3-4.1-17.3-2.2-25.8c11.9-2.1,24.1-1.3,36-3c0.1-9.5-0.9-19-1.1-28.5
					c-0.3-1.5,1.5-2.3,2.7-2.6c6.1-1.4,12.5-0.8,18.8-0.9c4.5,0.1,9.1-0.5,13.4,1c0.6,9.7,0.9,19.5,1.5,29.3
					c11.3,1.3,22.7,1.4,34.1,1.8c1.7,0.1,4.4,0.4,4.4,2.7c0.6,8,0.5,16,0.1,24c2.3-1,3.6-3.3,4-5.6c1.5-7.6,1.3-15.6-1.3-22.9
					c-1.4-3.7-5.6-5.1-9.2-5.7c-8.5-1.1-17.1-0.4-25.6-1.7c-1.3-0.2-2.9-1-2.9-2.5c-0.8-7.5-0.6-15.1-1.4-22.6
					c-1.8-2.5-5.3-2.8-8.1-3.3C281.8,301.1,273.3,301.2,264.9,301.6z M260.8,310.1c-0.2,10.2,1.5,20.3,0.9,30.5
					c-12,1.7-24.1,1.2-36.1,2.9c-1.2,5.8-0.3,11.8,0.5,17.6c0.6,2.5,0.9,5.6,3.1,7.4c10.8,0.3,21.5-2.1,32.4-1.8
					c0.7,8.8,0.9,17.7,1.4,26.5c0.6,4,5.4,3.9,8.5,4.5c8,0.5,16.4,0.8,24.2-1.4c0.5-9-0.3-17.9-0.1-26.9c-0.3-1.6,1.2-3.1,2.9-2.8
					c9.3,0.6,18.5,2.5,27.9,2.8c3.1,0,7.6-1.2,7.4-5.2c0.5-7.7,0.4-15.4-0.3-23.1c-11.3-0.7-22.6-1-33.9-1.5
					c-1.8-0.2-4.6-0.3-4.5-2.8c-0.5-9.2-0.6-18.4-1.4-27.6c-5.4-0.7-10.9-0.4-16.3-0.5C271.7,308.7,266.1,308.5,260.8,310.1z
					 M257.5,367.5c0.2,6.7,0.3,13.5,1.3,20.1c0.5,2.1,0.7,4.8,2.9,5.9c-0.1-8.6-0.4-17.2-1.1-25.8
					C259.8,367.6,258.2,367.5,257.5,367.5z M296.9,367.5c-0.9,9.2,0.1,18.5,0,27.7c2.3-1.1,4-3.5,4-6.1c0.1-7.1-0.1-14.2,0.1-21.3
					C299.6,367.7,298.2,367.6,296.9,367.5z"/>
			</g>
		</g>
		<ellipse class="st5" cx="379.5" cy="169.7" rx="30.1" ry="28.4"/>
		<ellipse class="st6" cx="379.5" cy="173" rx="28.7" ry="24.6"/>
		<g>
			<g>
				<path class="st0" d="M525.7,220.3c8.3-2.3,17.8-0.9,24.7,4.3c6.2,4.6,9.8,12.5,9,20.2c-1,10.5-8.8,19.8-18.6,23.4
					c-9.3,3.6-20.4,2.4-28.4-3.7c-7.2-5.3-10.5-15.2-8.2-23.9C506.9,230.5,515.7,222.8,525.7,220.3z M514,228.7
					c-3.8,2.2-6.2,6.2-7.7,10.2c0.3,0.6,0.9,1.8,1.1,2.4c-1.8,5.7-1.3,12.3,2.1,17.3c3.9,5.6,10.5,8.8,17.2,9.6
					c12.8,1.7,26.1-6.5,30-18.9c2.1-6,0-12.4-3.5-17.4l1,0.4c-0.3-3.1-2.5-6-5.6-6.8C538.1,218.3,523,220.1,514,228.7z"/>
			</g>
			<path class="st0" d="M514,228.7c5.8-2.8,11.6-6.2,18.3-6.2c5.6-0.5,11,1.6,16.3,3.1c3.1,0.8,5.3,3.6,5.6,6.8l-1-0.4
				c-3.8-3.5-8.2-6.7-13.4-7.6c-13-2.9-27.5,4.4-32.3,16.9c-0.3-0.6-0.9-1.8-1.1-2.4C507.7,234.9,510.2,230.8,514,228.7z"/>
		</g>
	</g>
</g>
</svg>
